<svg width="120" height="44" viewBox="23 1 100 44" fill="none" xmlns="http://www.w3.org/2000/svg">
<rect x="98.5972" y="39.7075" width="34" height="4" rx="2" fill="#00276F"/>
<rect x="47.5972" y="10.7075" width="51" height="4" rx="2" fill="#00276F"/>
<path fill-rule="evenodd" clip-rule="evenodd" d="M36.5225 17.5431L27.2642 17.5497L27.2769 36.0668L32.3951 36.0633L36.5357 36.0607C41.6493 36.0567 45.7915 31.9084 45.7879 26.7953C45.7844 21.6822 41.6361 17.5401 36.5225 17.5431ZM36.5266 22.6608C38.81 22.6592 40.6688 24.515 40.6703 26.7994C40.6718 29.0828 38.8156 30.941 36.5322 30.9426L32.391 30.9456L32.3854 22.6638L36.5266 22.6608Z" fill="#00276F"/>
<path fill-rule="evenodd" clip-rule="evenodd" d="M18.9916 30.9547L18.9855 22.6724L18.982 17.5553L18.9789 13.4141C18.9774 11.1307 20.8346 9.27141 23.117 9.26989C25.4004 9.26836 27.2597 11.1246 27.2612 13.408L27.2617 15.0122L32.3804 15.0081L32.3794 13.4044C32.3748 8.29137 28.227 4.14868 23.1139 4.15224C18.0009 4.15581 13.8577 8.30409 13.8613 13.4172L13.8638 17.5588L13.8679 22.6765L13.877 36.0764L24.7396 36.0683L24.7365 30.9506L18.9916 30.9547Z" fill="#00276F"/>
<path fill-rule="evenodd" clip-rule="evenodd" d="M60.0549 31.1054C60.6766 30.7292 61.1724 30.1946 61.5405 29.5017C61.9086 28.8088 62.0929 27.9983 62.0929 27.0687C62.0929 26.14 61.9086 25.3295 61.5405 24.6366C61.1724 23.9437 60.6771 23.4096 60.0549 23.0319C59.4323 22.6556 58.7353 22.4668 57.9645 22.4668C57.1927 22.4668 56.4957 22.6556 55.8735 23.0324C55.2514 23.4091 54.756 23.9442 54.3879 24.6371C54.0199 25.329 53.8361 26.14 53.8356 27.0692C53.8356 27.9978 54.0193 28.8088 54.3879 29.5012C54.756 30.1941 55.2509 30.7287 55.8741 31.1054C56.4957 31.4817 57.1927 31.6706 57.9645 31.6706C58.7353 31.6706 59.4328 31.4822 60.0549 31.1054ZM52.6264 35.4579C51.0481 34.6341 49.8125 33.4891 48.9185 32.0259C48.0245 30.5617 47.577 28.9096 47.577 27.0687C47.5775 25.2272 48.024 23.5761 48.9185 22.1114C49.812 20.6487 51.0486 19.5047 52.6259 18.6799C54.2042 17.8562 55.9825 17.4443 57.964 17.4443C59.9455 17.4443 61.7243 17.8567 63.3026 18.6804C64.8803 19.5047 66.1165 20.6482 67.01 22.1119C67.9045 23.5756 68.351 25.2277 68.3515 27.0692C68.3515 28.9091 67.904 30.5622 67.01 32.0254C66.116 33.4896 64.8803 34.6336 63.3026 35.4579C61.7248 36.2811 59.945 36.6935 57.9645 36.6935C55.983 36.6935 54.2042 36.2811 52.6264 35.4579Z" fill="#00276F"/>
<path fill-rule="evenodd" clip-rule="evenodd" d="M79.8692 31.9341C80.4832 31.9341 80.9602 31.8023 81.3029 31.5391C81.6445 31.2759 81.8155 30.8991 81.815 30.4088C81.8155 29.4624 81.1664 28.9884 79.8692 28.9884L76.6877 28.9879L76.6877 31.9336L79.8692 31.9341ZM70.5865 17.8647L86.5488 17.8652L86.5483 22.5465L76.6877 22.5465L76.6877 24.6757L81.0789 24.6762C83.323 24.6762 85.0454 25.1532 86.2464 26.1088C87.4474 27.0644 88.0476 28.4457 88.0476 30.251C88.0476 32.1276 87.3639 33.5995 85.9964 34.6686C84.6284 35.7383 82.7264 36.2728 80.2897 36.2728H70.587L70.5865 17.8647Z" fill="#00276F"/>
<path fill-rule="evenodd" clip-rule="evenodd" d="M100.538 26.3986C100.958 26.0219 101.169 25.4914 101.169 24.8081C101.169 24.1239 100.958 23.5944 100.538 23.2166C100.117 22.8394 99.4854 22.651 98.6443 22.651H96.3828V26.9642H98.6443C99.4859 26.9637 100.117 26.7759 100.538 26.3986ZM103.482 18.7069C104.745 19.2679 105.718 20.0739 106.402 21.1262C107.086 22.178 107.428 23.4045 107.428 24.8076C107.427 26.2102 107.086 27.4372 106.402 28.4891C105.718 29.5414 104.745 30.3473 103.482 30.9084C102.221 31.4694 100.739 31.7494 99.0389 31.7494H96.3833L96.3828 36.2729L90.1767 36.2729L90.1772 17.8648L99.0389 17.8648C100.739 17.8648 102.221 18.1458 103.482 18.7069Z" fill="#00276F"/>
<path fill-rule="evenodd" clip-rule="evenodd" d="M121.009 31.1056C121.632 30.7288 122.127 30.1942 122.495 29.5018C122.863 28.8089 123.047 27.9984 123.047 27.0688C123.047 26.1401 122.864 25.3291 122.495 24.6367C122.127 23.9438 121.632 23.4098 121.009 23.032C120.387 22.6563 119.69 22.4674 118.919 22.4669C118.147 22.4669 117.451 22.6563 116.828 23.0325C116.206 23.4103 115.712 23.9443 115.343 24.6367C114.974 25.3291 114.791 26.1401 114.79 27.0693C114.791 27.9984 114.975 28.8089 115.342 29.5013C115.71 30.1942 116.205 30.7288 116.829 31.1056C117.451 31.4823 118.147 31.6707 118.919 31.6707C119.69 31.6712 120.387 31.4823 121.009 31.1056ZM113.581 35.458C112.003 34.6337 110.767 33.4892 109.873 32.026C108.979 30.5618 108.531 28.9097 108.531 27.0688C108.532 25.2283 108.979 23.5762 109.873 22.1115C110.767 20.6493 112.003 19.5048 113.581 18.6806C115.159 17.8563 116.937 17.4449 118.918 17.4444C120.9 17.4444 122.68 17.8568 124.257 18.6806C125.835 19.5053 127.071 20.6493 127.965 22.112C128.859 23.5757 129.306 25.2283 129.306 27.0693C129.306 28.9092 128.859 30.5623 127.965 32.026C127.07 33.4898 125.835 34.6337 124.257 35.458C122.68 36.2818 120.899 36.6936 118.919 36.6936C116.937 36.6936 115.159 36.2812 113.581 35.458Z" fill="#00276F"/>
</svg>
