<svg xmlns="http://www.w3.org/2000/svg" width="120" height="40" viewBox="0 0 120 40">
    <g fill="#FFF" fill-rule="evenodd" transform="translate(-13 -4)">
        <rect width="34" height="4" x="98.597" y="39.708" rx="2"/>
        <rect width="51" height="4" x="47.597" y="10.708" rx="2"/>
        <path d="M36.523 17.543l-9.258.007.012 18.517 5.118-.004 4.141-.002a9.26 9.26 0 0 0-.013-18.518m.004 5.118a4.145 4.145 0 0 1 4.144 4.138 4.145 4.145 0 0 1-4.138 4.143l-4.142.004-.005-8.282 4.14-.003"/>
        <path d="M18.992 30.955l-.006-8.282-.004-5.118-.003-4.14a4.147 4.147 0 0 1 4.138-4.145 4.146 4.146 0 0 1 4.144 4.138l.001 1.604 5.119-.004-.001-1.603c-.005-5.113-4.153-9.256-9.266-9.253-5.113.004-9.256 4.152-9.253 9.265l.003 4.142.004 5.118.01 13.4 10.862-.009-.003-5.117-5.745.004zM60.055 31.106c.622-.376 1.118-.911 1.486-1.604.368-.693.552-1.503.552-2.433 0-.929-.184-1.74-.552-2.432-.368-.693-.864-1.227-1.486-1.605a3.964 3.964 0 0 0-2.09-.565c-.772 0-1.47.189-2.091.566-.622.376-1.118.912-1.486 1.604-.368.692-.552 1.503-.552 2.432 0 .93.184 1.74.552 2.433.368.692.863 1.227 1.486 1.604a3.959 3.959 0 0 0 2.09.565c.771 0 1.469-.188 2.091-.565m-7.428 4.352c-1.579-.824-2.814-1.969-3.708-3.432-.894-1.464-1.342-3.116-1.342-4.957 0-1.842.447-3.493 1.342-4.957.893-1.463 2.13-2.607 3.707-3.432 1.578-.823 3.357-1.235 5.338-1.235 1.982 0 3.76.412 5.339 1.236 1.577.824 2.814 1.968 3.707 3.431.895 1.464 1.341 3.116 1.342 4.957 0 1.84-.448 3.494-1.342 4.957-.894 1.464-2.13 2.608-3.707 3.432-1.578.823-3.358 1.236-5.338 1.236-1.982 0-3.76-.413-5.338-1.236M79.87 31.934c.613 0 1.09-.132 1.433-.395.341-.263.512-.64.512-1.13 0-.946-.649-1.42-1.946-1.42l-3.181-.001v2.946h3.181zm-9.284-14.07l15.963.001v4.682h-9.861v2.129h4.39c2.245 0 3.967.477 5.168 1.433 1.201.956 1.802 2.337 1.802 4.142 0 1.877-.684 3.349-2.052 4.418-1.368 1.07-3.27 1.604-5.706 1.604h-9.703V17.865zM100.538 26.399c.42-.377.631-.908.631-1.59 0-.685-.21-1.215-.631-1.592-.421-.378-1.052-.566-1.893-.566h-2.262v4.313h2.262c.841 0 1.472-.188 1.893-.565m2.945-7.692c1.262.561 2.235 1.367 2.919 2.42.684 1.051 1.026 2.278 1.026 3.68 0 1.403-.342 2.63-1.026 3.682-.684 1.052-1.657 1.858-2.92 2.42-1.26.56-2.742.84-4.443.84h-2.655v4.524h-6.207V17.865h8.862c1.7 0 3.182.28 4.444.842M121.01 31.106c.622-.377 1.118-.912 1.485-1.604.368-.693.553-1.504.553-2.433 0-.929-.184-1.74-.553-2.432-.368-.693-.863-1.227-1.485-1.605a3.97 3.97 0 0 0-2.09-.565c-.773 0-1.47.19-2.092.565-.622.378-1.116.912-1.485 1.605-.368.692-.552 1.503-.553 2.432 0 .93.185 1.74.553 2.432.368.693.863 1.228 1.486 1.605a3.956 3.956 0 0 0 2.09.565c.772 0 1.469-.189 2.09-.565m-7.428 4.352c-1.578-.824-2.814-1.969-3.708-3.432-.894-1.464-1.341-3.116-1.341-4.957 0-1.84.448-3.493 1.341-4.958.894-1.462 2.13-2.606 3.708-3.43 1.578-.825 3.357-1.236 5.338-1.237 1.981 0 3.761.413 5.338 1.237 1.579.824 2.814 1.968 3.709 3.431.893 1.464 1.34 3.116 1.34 4.957 0 1.84-.446 3.493-1.34 4.957-.895 1.464-2.13 2.608-3.709 3.432-1.577.824-3.357 1.236-5.338 1.236-1.981 0-3.76-.413-5.338-1.236"/>
    </g>
</svg>
